<svg xmlns="http://www.w3.org/2000/svg" width="64" height="64" viewBox="0 0 64 64" fill="none">
  <circle cx="32" cy="32" r="30" fill="#f0f4ff" stroke="#2c3e8f" stroke-width="2"/>
  <path d="M32 16c-8.837 0-16 7.163-16 16v4c0 2.209 1.791 4 4 4h2c1.105 0 2-.895 2-2v-8c0-1.105-.895-2-2-2h-2c0-6.627 5.373-12 12-12s12 5.373 12 12h-2c-1.105 0-2 .895-2 2v8c0 1.105.895 2 2 2h2c2.209 0 4-1.791 4-4v-4c0-8.837-7.163-16-16-16z" fill="#2c3e8f"/>
  <path d="M28 42c0 2.209 1.791 4 4 4s4-1.791 4-4" stroke="#4f3cc9" stroke-width="2" stroke-linecap="round"/>
  <circle cx="32" cy="32" r="3" fill="white"/>
</svg>

